<?xml version="1.0" encoding="UTF-8"?>
<svg id="Calque_1" xmlns="http://www.w3.org/2000/svg" width="126.9999981mm" height="82.197221mm" version="1.1" viewBox="0 0 360 233">
  <!-- Generator: Adobe Illustrator 29.3.1, SVG Export Plug-In . SVG Version: 2.1.0 Build 151)  -->
  <defs>
    <style>
      .st0 {
        fill: #5480ba;
      }

      .st1 {
        fill: #989898;
        isolation: isolate;
        opacity: .5;
      }
    </style>
  </defs>
  <g>
    <g>
      <path class="st0" d="M85.1392822.0649414C38.2293091.0649414.0650635,38.1915894.0650635,85.0552979c0,26.7366943,12.4523315,50.5947266,31.8361206,66.18573l11.8984375-17.1160278c-13.9953003-11.7849731-22.9194946-29.3969727-22.9194946-49.0697021,0-35.3953247,28.8289795-64.1958008,64.2591553-64.1958008,35.4307251,0,64.2537231,28.8004761,64.2537231,64.1958008,0,16.5137329-6.3510132,31.5206909-16.6450195,42.9047241v-47.4541016h-26.8109741c-7.9102783,0-15.3182373,3.8709717-19.8302002,10.3616943L11.1453247,198.7059937h36.4472046l21.0679932-30.3079834.1192017.0289917c5.2990723,1.0369873,10.7613525,1.6140137,16.3595581,1.6140137,1.9673462,0,3.8939209-.1640015,5.8287964-.2960205v-20.7940063c-1.9227905.1740112-3.8614502.2950439-5.8287964.2950439-.9864502,0-1.9469604-.1030273-2.9226685-.1480103l-.1240845-.0230713,19.9814453-28.7449341v78.3759766h30.6740112v-43.3510132c22.5610352-15.2989502,37.460022-41.0679932,37.460022-70.2996826C170.2080078,38.1915894,132.0440063.0649414,85.1392822.0649414Z"/>
      <polygon class="st0" points="218.9130249 110.0739746 195.3439941 198.9279785 217.2969971 198.9379883 240.8660278 110.085022 218.9130249 110.0739746"/>
      <path class="st0" d="M294.4860229,139.3070068c-3.3840332-4.117981-9.1519775-6.184021-17.3140259-6.1890259-11.3009644-.0049438-21.1749878,1.934021-29.6209717,5.8130493l2.4389648,14.7379761c7.9940186-3.1939697,14.3200073-4.7929688,18.9550171-4.7880249,5.1730347.0050049,7.0480347,2.6760254,5.6359863,8.0010376l-.2439575.9140015-10.7080078.3399658c-9.0549927.4169922-16.3930054,2.3049927-22.0040283,5.6660156-5.6049805,3.3660278-9.3250122,8.4979858-11.1489868,15.3930054-1.7579956,6.625-1.4030151,11.7579956,1.0720215,15.4180298,2.4749756,3.6549683,6.7079468,5.4829712,12.6939697,5.4879761,4.8690186,0,9.0209961-.6749878,12.4559937-2.0460205,3.4349976-1.3759766,7.1190186-3.9240112,11.0679932-7.651001h.4470215l1.940979,8.5700073,15.2150269.0050049,11.257019-42.427002c1.9559937-7.3909912,1.2449951-13.1329956-2.1400146-17.2449951ZM269.8599854,175.1030273c-.7219849,2.7359619-2.2619629,4.9649658-4.6039429,6.6809692-2.3480225,1.7009888-4.8480225,2.559021-7.5110474,2.559021-4.1469727-.0050049-5.7119751-1.9799805-4.6549683-5.9450073,1.3619995-5.1329956,5.6969604-7.8389893,12.9890137-8.1030273l5.1119995-.2179565-1.3310547,5.026001Z"/>
      <path class="st0" d="M347.4169922,164.0050049c-1.7219849-1.7919922-4.5529785-3.6149902-8.5169678-5.4829712-5.3510132-2.4060059-8.5469971-3.9950562-9.6040039-4.7770386-1.0369873-.7869873-1.4230347-1.7260132-1.1279907-2.8280029.4719849-1.7869873,2.5100098-2.690979,6.1079712-2.6849976,2.0530396,0,4.5939941.4719849,7.5969849,1.4110107,3.0140381.9290161,5.7990112,2.0609741,8.3700562,3.401001l9.756958-14.3870239c-3.4859619-1.7869873-6.9569702-3.1529541-10.3969727-4.09198-3.4360352-.9290161-7.2520142-1.4060059-11.4390259-1.4060059-8.3549805-.0050049-15.2509766,1.6650391-20.7189941,5.0150146-5.447998,3.3510132-8.9790039,8.0319824-10.5750122,14.0479736-1.2600098,4.7620239-1.1329956,8.6860352.3610229,11.7880249,1.4940186,3.1069946,4.8430176,5.8839722,10.0310059,8.3259888,5.71698,2.5889893,9.1170044,4.3309937,10.2149658,5.223999,1.092041.8939819,1.4830322,1.9140015,1.1790161,3.0510254-.5849609,2.2089844-3.2529907,3.3200073-7.9989624,3.3150024-3.1810303,0-6.6830444-.4920044-10.4790039-1.4869995-3.8010254-.9899902-7.1960449-2.2540283-10.2040405-3.7770386l-4.7459717,17.875c3.2819824,1.3660278,6.5859985,2.3099976,9.9240112,2.8330078,3.348999.5079956,7.3789673.7720337,12.0949707.7720337,8.6900024.0050049,15.8200073-1.757019,21.3989868-5.2960205,5.5800171-3.53302,9.2900391-8.7769775,11.1290283-15.7069702.914978-3.4620361,1.1790161-6.3970337.7929688-8.8230591-.3859863-2.4119873-1.4429932-4.5139771-3.151001-6.3109741Z"/>
      <path class="st0" d="M175.1810303,176.1229858l6.677002-25.1749878,15.6109619.0100098,4.4370117-16.7329712-15.6110229-.0100098,3.4400024-12.967041-18.381958-.0100098c-4.2810059,11.0110474-10.4840088,21.0270386-18.2150269,29.6920166l6.6040039.0020142-7.0739746,26.6690063c-2.0220337,7.6149902-1.8900146,13.2650146.3869629,16.9359741,2.2910156,3.6700439,7.1190186,5.5130005,14.4880371,5.5180054,3.5979614,0,6.8039551-.2789917,9.6300049-.8219604,2.8199463-.5480347,5.8789673-1.4720459,9.177002-2.7620239l4.3199463-16.2709961c-4.5130005,1.4719849-8.242981,2.2080078-11.1999512,2.2030029-3.9640503,0-5.4020386-2.0859985-4.2890015-6.2800293Z"/>
    </g>
    <path d="M226.1580048,213.802002h5.246994c2.4640045,0,4.246994.3800049,5.3480072,1.1419983,1.1019897.7610016,1.6519928,1.9649963,1.6519928,3.6109924,0,1.1380005-.3069916,2.0770111-.9210052,2.8170013-.6139984.7400055-1.5089874,1.2190094-2.6869965,1.4380035v.1309967c2.8200073.4990082,4.2299957,2.0310059,4.2299957,4.5960083,0,1.7160034-.5609894,3.0549927-1.6829987,4.0189972-1.121994.9620056-2.6909943,1.4440002-4.7070007,1.4440002h-6.4789886v-19.197998ZM228.3179932,222.0220032h3.5570068c1.5240021,0,2.6210022-.2470093,3.2899933-.7420044.6700134-.4949951,1.0040131-1.3289948,1.0040131-2.5009918,0-1.0770111-.3720093-1.8540039-1.1180115-2.3310089s-1.9309998-.7160034-3.5569916-.7160034h-3.1760101v6.2900085ZM228.3179932,223.9129944v7.1829987h3.8740082c1.5,0,2.628006-.2999878,3.3860016-.8999939.7590027-.598999,1.1369934-1.5379944,1.1369934-2.8170013,0-1.1900024-.3869934-2.0650024-1.1620026-2.6259918-.7749939-.5600128-1.9539948-.8400116-3.5379944-.8400116h-3.6970062Z"/>
    <path d="M247.7429962,223.3999939l4.95401-9.5979919h2.3379974l-6.1999969,11.7519989v7.4459991h-2.1850128v-7.3399963l-6.1869965-11.8580017h2.3630066l4.9169922,9.5979919Z"/>
    <path d="M324.4729919,232.326004h4.3200073v-8.7100067l7.9760132,8.7100067h5.2309875v-19.326004h-6.3859863v9.1150055l-7.9780273-9.1150055h-5.2309875v14.0090027l-5.446991-14.0090027h-7.3410034l-5.427002,13.9609985h3.8639832l-1.8519897,5.3650055h2.7220154l.8089905-2.3350067h7.1390076l.7799988,2.3350067h6.8209839ZM311.5249939,224.7980042l1.7919922-5.25,1.7920227,5.25h-3.5840149Z"/>
    <path d="M302.4320068,213h-6.3869934v13.9470062l-5.4230042-13.9470062h-28.6220093v5.3650055h7.3800049v13.9609985h6.3869934v-13.9609985h5.428009l-5.428009,13.9609985h6.8200073l.8099976-2.3350067h7.1380005l.7810059,2.3350067h10.7869873l2.0870056-5.3650055h-1.7579956v-13.9609985ZM285.1889954,224.7980042l1.7919922-5.25,1.7920227,5.25h-3.5840149Z"/>
  </g>
  <g>
    <path class="st1" d="M132.7479858,127.0905762v.8694458c1.0532227-1.1647339,2.053833-2.3766479,3.0219116-3.6149902-.9396973.9831543-1.947876,1.8984985-3.0219116,2.7455444Z"/>
    <path class="st1" d="M138.0856323,121.2174683c-1.1898804.8625488-2.999939,1.309021-5.3376465,1.3539429v1.2822266c1.458313-.0307617,2.7315063-.2134399,3.8234253-.5397339.5170898-.6893311,1.024292-1.3864746,1.5142212-2.0964355Z"/>
    <path class="st1" d="M140.6950073,84.7484131c-1.4749756-3.3428955-3.2810059-6.6298828-5.3870239-9.8261108,2.4656372-16.2290649-.8718262-30.9285889-9.9139404-39.850708-2.8029175-2.2578125-5.7979736-4.2840576-8.9578857-6.0527954-9.1114502-3.9503174-20.2523804-3.3795166-31.9207764,1.7545166-3.3302612,1.4656982-6.6048584,3.2616577-9.789978,5.352478-3.7637939-.5739136-7.4857788-.8439941-11.1203003-.7922974-14.7855225.2208862-26.3795776,5.71521-32.6453857,15.4714966-8.0839233,12.5872192-5.5593872,29.8911133,4.8894043,45.8070068-.5809326,3.78302-.8519897,7.5230103-.7973022,11.1760254.1541748,10.3029175,2.8841553,19.0472412,7.8317871,25.5233765.3074341.2689209.6034546.550415.9160156.8135986l-.1223145.1759644c1.9755859,2.3795776,4.262207,4.4331055,6.8612061,6.0990601.2641602.1693115.5387573.3146362.8070068.4746704l.8052368-1.1585083c-.3233643-.1047974-.6324463-.2323608-.909668-.4101562-3.8875732-2.4920044-3.0164795-11.6890259,1.4448853-24.1090088,2.9726562,2.4660034,6.1531982,4.8120117,9.5508423,6.9899902.4870605.3121948.9780884.6068726,1.4676514.9082642l.7431641-1.0691528c-.50354-.3095703-1.008606-.6121216-1.5095215-.9331055-3.4855957-2.2340088-6.7442017-4.6450195-9.7753906-7.1829834,2.4989624-6.7110596,5.9981689-14.2945557,10.3258667-22.2368164,3.9866333,2.9238892,8.2421265,5.8513794,12.7371216,8.7327881.75354.4829712,1.5071411.9523315,2.2607422,1.4241333l.7426147-1.0682983c-.767334-.4802246-1.534668-.958252-2.302063-1.4501343-4.491272-2.8789062-8.7781982-5.836792-12.8015747-8.8071289,2.418396-4.3753662,5.081665-8.8493042,7.9636841-13.3364868,2.864563-4.4602051,5.8156128-8.7462769,8.7971191-12.7912598,4.387146,2.4193726,8.8686523,5.0733643,13.3683472,7.9575806,4.1553345,2.6635132,8.1507568,5.4033203,11.9503784,8.1715088h2.6975098c4.1889648-7.6651001,7.664856-15.0903931,10.2045288-21.8530884,5.8610229,5.0510864,10.8850098,10.6582642,14.848999,16.5924683-.3135376,1.9587402-.7226562,3.9414062-1.2080078,5.9370117v4.8823853c.9415283-3.1013794,1.6942139-6.1847534,2.2369995-9.2210083,1.7360229,2.7546997,3.2579956,5.5690918,4.519043,8.4282227,5.013916,11.3707275,5.5595093,22.1882935,1.6871338,30.979187,1.2808838-2.270752,2.4165649-4.6316528,3.4179077-7.0609741,1.1895752-7.4516602-.1040039-15.8014526-3.9140625-24.4417114ZM85.0401001,31.9625854c6.4182739-2.8239746,12.6613159-4.2346802,18.4649048-4.2346802,4.6729736,0,9.0559692.9248657,13.0180054,2.7525024-4.1929932.4957886-9.9509888,3.9934692-16.7711182,10.2922974-.7977905.7368164-1.6049805,1.5153198-2.4160156,2.3123169-6.8319702-3.1647339-13.8197021-5.3978271-20.6959839-6.6304321,2.7457886-1.7246094,5.5507812-3.2380981,8.4002075-4.4920044ZM63.6240845,36.6331787c3.1116943-.0457764,6.2903442.1621094,9.5027466.5856934-5.7299194,3.9790039-11.1426392,8.913208-16.0273438,14.6272583-10.0551758-3.6310425-18.1069946-4.9318237-22.7226562-3.4451294,6.3648682-7.4287109,16.5841675-11.5789185,29.2472534-11.7678223ZM32.0548096,51.506897c1.0761108-1.675293,3.3997192-2.4661255,6.6939697-2.4661255,4.3356323,0,10.3655396,1.3876343,17.4216309,3.9150391-2.4766846,2.9887695-4.8168945,6.1697998-6.9785156,9.5352783-2.1638794,3.3688965-4.085083,6.8233032-5.7738647,10.3217163-9.2313232-9.4290161-13.8566284-17.4229736-11.3632202-21.3059082ZM30.1984253,54.9191284c.5758057,4.8106689,5.1130981,11.5766602,12.6019897,19.1896973-3.1599121,6.8087769-5.3925171,13.7718506-6.6259155,20.6256714-8.6586914-13.7442017-11.2548218-28.3676147-5.9760742-39.8153687ZM48.1333008,136.9880371c-7.4370117-6.3580322-11.59198-16.5680542-11.7805786-29.2200317-.046814-3.1240234.163269-6.315979.5921021-9.5430908,3.9224854,5.6480713,8.8370972,11.0930786,14.637207,16.0551147-3.6361084,10.0499878-4.9383545,18.0960083-3.4487305,22.7080078ZM52.0620728,112.973999c-5.9503784-5.1419678-10.9470825-10.7890015-14.848999-16.6300659,1.1275024-7.0393066,3.3516235-14.2216187,6.5682983-21.2478027,5.0634155,5.0258789,11.364502,10.3896484,18.6265259,15.7824707-4.3504028,7.9232178-7.8397827,15.4204102-10.3458252,22.0953979ZM70.9940186,76.4661865c-2.8840942,4.4904175-5.5314331,8.9232178-7.9355469,13.2409058-7.2504883-5.4204712-13.59729-10.8595581-18.6699829-15.9223633,1.7120972-3.5905151,3.6784058-7.135498,5.8984985-10.5917358,2.2183228-3.4539795,4.6229858-6.7144775,7.1748047-9.7637939,6.7228394,2.496521,14.3148193,5.9938965,22.272583,10.321228-2.9629517,4.0261841-5.8946533,8.2854004-8.7403564,12.7157593ZM80.5390015,62.6685791c-7.9368896-4.3495483-15.4464722-7.8381958-22.1323242-10.3430786,5.0601196-5.8574219,10.677002-10.8770752,16.6218262-14.8372803,7.0632935,1.1256714,14.2686768,3.352478,21.3175049,6.574585-5.1516113,5.182373-10.5213013,11.5131226-15.8070068,18.6057739ZM107.7059937,79.9877319c-4.0360107-2.9655151-8.3071899-5.8995361-12.750061-8.7474365-4.5001221-2.8845215-8.9425049-5.5317993-13.2693481-7.9356689,5.3314209-7.1427002,10.7421265-13.4927979,15.9203491-18.6599121,3.6050415,1.7139893,7.1651001,3.684082,10.637085,5.9089966,3.4699707,2.2244873,6.7459717,4.6362915,9.8079834,7.1964111-2.5440063,6.8572998-6.0670166,14.4181519-10.3460083,22.2376099ZM118.5239868,56.458313c-3.0009766-2.484436-6.1969604-4.8312378-9.5780029-6.9985962-3.381958-2.1677246-6.848999-4.0914307-10.3612061-5.7810059.6876221-.6702271,1.3722534-1.3256226,2.0502319-1.9515991,7.0839844-6.5427246,13.0089722-10.0386963,16.8499756-10.0386963.9509888,0,1.7750244.2150879,2.4570312.6516724,3.4290161,2.1983032,3.2479858,10.0140381-.4970093,21.4437256-.2869873.8762817-.5980225,1.770874-.9210205,2.6744995ZM134.2290039,73.350708c-3.9840088-5.7224121-8.9240112-11.1281128-14.6439819-16.0057983.3869629-1.0681152.7579956-2.1251221,1.0960083-3.156189,2.8889771-8.8157959,3.6739502-15.49823,2.3799438-19.5130005,9.5670166,8.2098999,13.3050537,22.5806885,11.1680298,38.6749878Z"/>
    <path class="st1" d="M140.97229,116.6229248c-.4753418-3.6949463-3.2626343-8.5870972-8.2243042-14.3432617v2.0155029c5.1901245,6.2694702,7.6126709,11.3746338,6.8980713,14.5498047.4580078-.7301025.8970337-1.4729614,1.3262329-2.2220459Z"/>
    <path class="st1" d="M102.0739746,134.8098755c-1.3325806-.0974121-2.6744385-.2208862-4.0342407-.4018555,1.3582764-.9425659,2.7037354-1.9462891,4.0342407-3.0030518v-1.6696777c-1.9453735,1.5880127-3.9235229,3.0626831-5.9272461,4.3997192-1.0761108-.1724854-2.1608276-.3800049-3.2490845-.604126l-.7982788,1.1483765c.8217773.1743774,1.6411743.3359985,2.4568481.4817505-1.5385742.9689331-3.0891113,1.8500366-4.644165,2.664978l-1.5370483,2.2111206c2.7109375-1.2930908,5.4118042-2.8108521,8.0733032-4.5581055,1.8984985.2891235,3.7745361.4945679,5.6256714.628418v-1.2975464Z"/>
  </g>
</svg>