<?xml version="1.0" encoding="UTF-8"?>
<svg id="Calque_1" xmlns="http://www.w3.org/2000/svg" width="61.3833324mm" height="49.3888881mm" version="1.1" viewBox="0 0 174 140">
  <!-- Generator: Adobe Illustrator 29.3.1, SVG Export Plug-In . SVG Version: 2.1.0 Build 151)  -->
  <defs>
    <style>
      .st0 {
        fill: #1e1e1e;
      }
    </style>
  </defs>
  <path class="st0" d="M172.9267578,19.8864136c-.3300781-.168457-33.4814453-16.6791992-65.0605469-6.5244141-6.4347534,2.2241211-18.1725464,10.8577881-29.7697754,20.2585449-.112854-.0369873-.2321167-.0610962-.3581543-.0568848l-35.7114258,1.8364258-29.7211914,14.8964844,35.8334351,9.1173706c-1.6464233,1.489624-2.6936646,2.4506226-2.9520874,2.6882935l-.5537109.5087891.7696533,1.543396c-.1316528.0474243-.2564087.118042-.3624268.2227173l-8.6518555,8.5253906.803894,1.6119995-.2658081.020813c-4.144043.3251953-8.4960938,1.5810547-12.5869141,3.6318359-2.7192383,1.3623047-5.6645508,3.7519531-8.753418,7.1005859-2.4707031,2.6767578-5.0395508,5.9726562-7.6362305,9.7958984-2.3071289,3.3964844-4.2109375,6.59375-5.4013672,8.6777344-.578125,1.0107422-1.0454102,1.859375-1.387207,2.4912109l-.6806641,1.2568359,1.4140625.2080078c.7084961.1044922,1.6660156.2412109,2.8183594.3837891,2.3671875.2949219,6.0522461.6855469,10.1645508.875,1.6611328.0761719,3.2646484.1142578,4.8061523.1142578,2.7382812,0,5.2797852-.1201172,7.59375-.359375,4.5258789-.46875,8.1992188-1.3974609,10.9179688-2.7597656,4.090332-2.0498047,7.7045898-4.7890625,10.4526367-7.9208984l.1730347-.1970825.4011841.8045044,11.9985352-1.8232422c.1456909-.0221558.276123-.078186.3920288-.1536865l.7686157,1.5413818.7426758-.1396484c.3205566-.0600586,1.5438843-.2906494,3.4650879-.6658936l-14.005127,33.6746826,29.7270508-14.8994141,22.6576538-27.2545776c14.6876221-3.697876,28.9503174-8.0012817,34.675354-11.8880005,27.0361328-19.2182617,33.75-55.7114258,33.8144531-56.0776367l.1289062-.7299805-.6611328-.3354492ZM49.2802734,57.6403198l-31.2832031-7.9589844,24.5512695-12.3056641,33.0275269-1.6984863c-10.3355103,8.4866333-20.239563,17.2575684-25.8146362,22.2733154-.1276245-.1413574-.2826538-.2597046-.480957-.3101807ZM37.2998047,104.163269c-2.5024414,1.2539062-5.9433594,2.1152344-10.2280273,2.5576172-3.5180664.3662109-7.5888672.4462891-12.1020508.2373047-4.0478516-.1865234-7.6772461-.5712891-10.0097656-.8613281-.4853516-.0605469-.9350586-.1191406-1.3457031-.1748047.203125-.3642578.4267578-.7617188.6708984-1.1884766,1.1733398-2.0537109,3.0483398-5.203125,5.3193359-8.546875,2.5410156-3.7402344,5.0483398-6.9580078,7.4516602-9.5634766,2.925293-3.1699219,5.6772461-5.4140625,8.1801758-6.6689453,3.6450195-1.8271484,7.4995117-2.984375,11.190918-3.3652344l1.9321289,3.7167969c-.8916016.2539062-1.7739258.5996094-2.6342773,1.0302734-1.1953125.5986328-2.4487305,1.6044922-3.7255859,2.9892578-.9560547,1.0361328-1.9428711,2.3007812-2.9331055,3.7587891-.8706055,1.28125-1.5830078,2.4775391-2.0273438,3.2548828-.1147461.2001953-.2172852.3837891-.3081055.5478516l-.0195312-.0097656-1.6889648,3.3085938,1.6962891.2939453-.03125.1835938h1.0854492l.9106445.15625.0039062-.0224609c.1845703.0253906.3925781.0527344.6201172.0810547.8876953.1103516,2.2695312.2578125,3.8149414.3291016,1.753418.0810547,3.355957.0478516,4.7617188-.0966797,1.8696289-.1943359,3.4238281-.5966797,4.6201172-1.1953125.8579102-.4296875,1.6601562-.9287109,2.3974609-1.4902344l1.8041992,3.7744141c-2.5209961,2.7373047-5.7597656,5.1367188-9.40625,6.9638672ZM44.5693359,91.0958862c-.859375.7939453-1.8554688,1.4765625-2.9604492,2.0302734-.9799805.4912109-2.3022461.8261719-3.9306641.9941406-1.3076172.1357422-2.8085938.1650391-4.4633789.0888672-1.480957-.0683594-2.8076172-.2089844-3.659668-.3154297-.1914062-.0244141-.3676758-.046875-.527832-.0683594l.1210938-.703125-.6357422-.3242188c.0791016-.1425781.1665039-.2978516.2626953-.4667969.4267578-.7460938,1.1113281-1.8945312,1.9453125-3.1240234.9350586-1.3759766,1.8598633-2.5625,2.7485352-3.5263672,1.112793-1.2060547,2.1733398-2.0664062,3.1518555-2.5566406,1.1083984-.5556641,2.2524414-.9453125,3.3999023-1.1572266l.8129272-.1506348,4.3462524,8.7153931-.6108398.5641479ZM50.3623047,96.4425659l-11.5361328-23.1337891,7.4706421-7.3619385,14.4226074,28.9217529-10.3571167,1.5739746ZM81.0410156,114.5724487l-24.5444336,12.3017578,12.4194336-29.8632812c.0102539-.0246582.0067139-.0504761.0148926-.0754395,7.1610718-1.4220581,19.8915405-4.0518799,32.7612305-7.2042847l-20.651123,24.8412476ZM138.5039062,75.3869019c-12.3037109,8.3525391-67.9121094,19.2089844-75.0068359,20.5693359l-16.4018555-32.8891602c5.3339844-4.8662109,47.3725586-42.9580078,61.4047852-47.8076172,8.5216675-2.741333,17.168396-3.4758301,25.2298584-3.1136475.0056152.0125122.0042114.026062.010376.0384521l22.3330078,44.7827148c.0116577.0234375.0300293.0405273.0432739.0626221-4.5456543,6.6800537-10.3165894,13.1708984-17.6126099,18.3572998ZM157.3835449,55.1143799l-21.3619385-42.8355103c17.6658325,1.256958,32.0800781,7.5506592,35.3201904,9.0650635-.7355957,3.5057373-4.3616333,18.847229-13.958252,33.7704468Z"/>
  <path class="st0" d="M122.0810547,32.3825073c-7.5117188,0-13.6220703,6.1254883-13.6220703,13.6542969s6.1103516,13.6542969,13.6220703,13.6542969,13.6230469-6.1254883,13.6230469-13.6542969-6.1113281-13.6542969-13.6230469-13.6542969ZM122.0810547,57.6911011c-6.4082031,0-11.6220703-5.2280273-11.6220703-11.6542969s5.2138672-11.6542969,11.6220703-11.6542969c6.4091797,0,11.6230469,5.2280273,11.6230469,11.6542969s-5.2138672,11.6542969-11.6230469,11.6542969Z"/>
</svg>