
<svg width="104" height="97" viewBox="0 0 104 97" fill="none" xmlns="http://www.w3.org/2000/svg">
<g clip-path="url(#clip0_20_5063)">
<path d="M66.6935 64.1634C62.0735 67.2901 55.7224 66.8586 51.5739 62.8193L43.8826 55.3301C39.476 51.0394 38.7456 44.0554 42.5184 39.1996C46.9868 33.4484 55.3477 32.9959 60.418 37.9329L68.3417 45.6483C72.4805 49.6783 73.0794 55.9876 70.0893 60.6747M66.5359 57.1621C67.7253 54.4904 67.2015 51.2431 64.9854 49.0852L57.2272 41.531C54.6465 39.0182 50.5577 38.593 47.6929 40.7774C44.1178 43.5035 43.9081 48.65 47.0065 51.6669L54.9302 59.3823C57.1712 61.5644 60.484 61.9909 63.1444 60.6833" stroke="black" stroke-width="2"/>
<path d="M76.0888 66.576C80.7089 63.4464 87.0626 63.8769 91.2123 67.9175L98.9043 75.4073C103.311 79.6981 104.041 86.6825 100.267 91.538C95.7982 97.2884 87.4382 97.7405 82.3682 92.8039L74.4445 85.0885C70.3135 81.0661 69.7091 74.773 72.6802 70.0884M76.2234 73.6361C75.0691 76.2961 75.6017 79.5102 77.8008 81.6515L85.5582 89.2051C88.1388 91.7178 92.2273 92.1435 95.0925 89.9598C98.6683 87.2345 98.8784 82.0871 95.7797 79.0699L87.856 71.3545C85.6038 69.1615 82.2691 68.7417 79.6022 70.0729" stroke="black" stroke-width="2"/>
<path d="M78.6415 75.7786L61.0404 58.6402C60.0899 57.7147 60.0707 56.1951 60.9975 55.246C61.9243 54.2969 63.4462 54.2778 64.3966 55.2033L81.9977 72.3416C82.9482 73.2671 82.9673 74.7867 82.0405 75.7358C81.1137 76.6849 79.5919 76.704 78.6415 75.7786Z" stroke="black" stroke-width="2"/>
<path d="M75.0748 65.6329V0.79541H1.29665V92.8855H75.0748V86.0724" stroke="black" stroke-width="2"/>
<path d="M16.1422 16.5183H60.679" stroke="black" stroke-width="2"/>
<path d="M16.1422 23.2566H60.679" stroke="black" stroke-width="2"/>
<path d="M16.1422 29.9949H60.679" stroke="black" stroke-width="2"/>
<path d="M16.1422 36.7332H44.6338" stroke="black" stroke-width="2"/>
<path d="M16.1422 43.4714H40.2101" stroke="black" stroke-width="2"/>
<path d="M16.1422 50.2097H40.735" stroke="black" stroke-width="2"/>
<path d="M16.1422 56.948H45.4586" stroke="black" stroke-width="2"/>
<path d="M16.1422 63.6863H52.3565" stroke="black" stroke-width="2"/>
<path d="M16.1422 70.4246H60.679" stroke="black" stroke-width="2"/>
<path d="M16.1422 77.1628H40.2101" stroke="black" stroke-width="2"/>
</g>
<defs>
<clipPath id="clip0_20_5063">
<rect width="103" height="97" fill="white" transform="translate(0.5)"/>
</clipPath>
</defs>
</svg>
