<?xml version="1.0" encoding="UTF-8"?>
<svg id="Calque_1" xmlns="http://www.w3.org/2000/svg" width="52.9166659mm" height="42.3333327mm" version="1.1" viewBox="0 0 150 120">
  <!-- Generator: Adobe Illustrator 29.3.1, SVG Export Plug-In . SVG Version: 2.1.0 Build 151)  -->
  <defs>
    <style>
      .st0 {
        fill: #fff;
      }
    </style>
  </defs>
  <path class="st0" d="M105.5732422,62.0353394h28.4101562v-23.862793h-28.4101562v23.862793ZM107.5732422,40.1725464h24.4101562v19.862793h-24.4101562v-19.862793Z"/>
  <path class="st0" d="M135.5859375,4.0353394H62.0273438l-12.2207031,18.8691406v.2954102c0,4.6240234,3.507019,8.4414673,8,8.940979v28.0350952H19.4389648l-2.7436523-7.9467773-13.1303711-5.2519531c-.5151367-.2041016-1.0957031.0444336-1.300293.5571289-.2050781.5131836.0444336,1.0947266.5571289,1.300293l12.2817383,4.9121094,2.6494141,7.675293c.0141602.0546875.0322266.1074219.0546875.1582031l10.3584595,30.005188-5.600647,10.5436401h45.8515625c.5522461,0,1-.4472656,1-1s-.4477539-1-1-1H25.8925781l3.9619751-7.4589844h37.8978882l2.3607788-12.5644531h70.3623657v-48.0672607c4.166748-.7858887,7.3300781-4.4472046,7.3300781-8.838501v-.2954102l-12.2197266-18.8691406ZM144.9665527,22.1998901h-13.5297852l-7.7043457-16.1645508h10.765625l10.4685059,16.1645508ZM115.5996704,22.1998901l-3.3303223-16.1645508h9.2483521l7.7039185,16.1645508h-13.6219482ZM113.5769653,22.1998901h-13.7703247V6.0353394h10.4209595l3.3493652,16.1645508ZM97.8066406,22.1998901h-13.7712402l3.3502197-16.1645508h10.4210205v16.1645508ZM81.9923096,22.1998901h-13.6010742l7.7053223-16.1645508h9.2459106l-3.3501587,16.1645508ZM81.7268066,24.1998901c-.487854,3.3865967-3.401123,6-6.920166,6-3.5200806,0-6.4378052-2.6127319-6.9249878-6h13.8451538ZM97.7268066,24.1998901c-.487854,3.3865967-3.401123,6-6.920166,6s-6.434021-2.6134644-6.9214478-6h13.8416138ZM113.7271118,24.1998901c-.4874268,3.3865356-3.4024048,6-6.9214478,6s-6.4314575-2.6134033-6.9191895-6h13.8406372ZM129.7311401,24.1998901c-.4872437,3.3872681-3.4058228,6-6.9254761,6-3.519043,0-6.432251-2.6134033-6.920105-6h13.8455811ZM63.1152344,6.0353394h10.765564l-7.7052612,16.1645508h-13.5297241l10.4694214-16.1645508ZM51.8789673,24.1998901h13.8478394c-.487793,3.3865967-3.4006958,6-6.920166,6-3.5205688,0-6.4411621-2.6121826-6.9276733-6ZM71.4467773,62.1759644l-2.5155029,13.3886719h-15.9296265l1.5014648-13.3886719h16.9436646ZM29.9663086,90.670105l-4.524353-13.1054688h12.0263062l1.4697266,13.1054688h-8.9716797ZM39.4805298,77.5646362h11.2845459l-1.4697876,13.1054688h-8.3449707l-1.4697876-13.1054688ZM39.2562256,75.5646362l-1.5014648-13.3886719h14.736084l-1.5014648,13.3886719h-11.7331543ZM35.7424927,62.1759644l1.5014648,13.3886719h-12.4924316l-4.6221313-13.3886719h15.6130981ZM66.0932617,90.670105h-14.7856445l1.4697266-13.1054688h15.7781982l-2.4622803,13.1054688ZM73.8579102,60.1759644h-3.5664062v-20.003418h29.012207v37.9331055h-28.8146973l3.3688965-17.9296875ZM101.3037109,78.1056519v-39.9331055h-33.012207v22.003418h-8.4848633v-28.0350952c3.0559692-.3397217,5.6499634-2.2163696,7-4.836853,1.4953003,2.9024048,4.5165405,4.895874,8,4.895874,3.4837646,0,6.5047607-1.9932861,8-4.8956299,1.4952393,2.9023438,4.5162354,4.8956299,8,4.8956299,3.4837036,0,6.5047607-1.9932861,8-4.8956299,1.4951782,2.9023438,4.5159912,4.8956299,7.9990234,4.8956299,3.4837646,0,6.5047607-1.9932861,8-4.8956299,1.4952393,2.9023438,4.5162354,4.8956299,8,4.8956299s6.5047607-1.9932861,8-4.8956299c1.4474487,2.8095093,4.3269043,4.7567749,7.6699219,4.8789062v45.9224854h-37.171875ZM138.8056641,30.1998901c-3.519043,0-6.432251-2.6134033-6.920105-6h13.8477173c-.4865112,3.3878174-3.4074707,6-6.9276123,6Z"/>
  <path class="st0" d="M30.7226562,104.3654175c-3.1982422,0-5.7998047,2.6015625-5.7998047,5.7998047s2.6015625,5.7998047,5.7998047,5.7998047,5.800293-2.6015625,5.800293-5.7998047-2.6020508-5.7998047-5.800293-5.7998047ZM30.7226562,113.9650269c-2.0952148,0-3.7998047-1.7041016-3.7998047-3.7998047s1.7045898-3.7998047,3.7998047-3.7998047c2.0957031,0,3.800293,1.7041016,3.800293,3.7998047s-1.7045898,3.7998047-3.800293,3.7998047Z"/>
  <path class="st0" d="M63.0893555,104.3654175c-3.1982422,0-5.800293,2.6015625-5.800293,5.7998047s2.6020508,5.7998047,5.800293,5.7998047,5.7998047-2.6015625,5.7998047-5.7998047-2.6015625-5.7998047-5.7998047-5.7998047ZM63.0893555,113.9650269c-2.0957031,0-3.800293-1.7041016-3.800293-3.7998047s1.7045898-3.7998047,3.800293-3.7998047c2.0952148,0,3.7998047,1.7041016,3.7998047,3.7998047s-1.7045898,3.7998047-3.7998047,3.7998047Z"/>
</svg>