<?xml version="1.0" encoding="UTF-8"?>
<svg id="Calque_1" xmlns="http://www.w3.org/2000/svg" width="50.7999992mm" height="39.5111105mm" version="1.1" viewBox="0 0 144 112">
  <!-- Generator: Adobe Illustrator 29.3.1, SVG Export Plug-In . SVG Version: 2.1.0 Build 151)  -->
  <defs>
    <style>
      .st0 {
        fill: #fff;
      }
    </style>
  </defs>
  <path class="st0" d="M126.9072266,47.5597534v-4.2324219h4.7412109v-9.4067383h10.7294922l.4033203-1.9150391L72,.8244019,1.2192383,32.0055542l.4033203,1.9150391h10.7294922v9.4067383h4.7407227v4.2324219h2.7832031v44.6376953h-2.7832031v4.2353516h-4.7407227v5.6474609H4.1884766v9.0029297h135.6220703v-9.0029297h-8.1621094v-5.6474609h-4.7412109v-4.2353516h-2.7832031v-44.6376953h2.7832031ZM124.9072266,45.5597534h-12.8398438v-2.2324219h12.8398438v2.2324219ZM110.0673828,92.1974487v4.2353516h-6.4042969v-4.2353516h-2.7832031v-44.6376953h2.7832031v-4.2324219h6.4042969v4.2324219h2.7832031v44.6376953h-2.7832031ZM33.9326172,47.5597534v-4.2324219h6.4038086v4.2324219h2.7832031v44.6376953h-2.7832031v4.2353516h-6.4038086v-4.2353516h-2.7832031v-44.6376953h2.7832031ZM45.1196289,92.1974487v-44.6376953h7.2734375v44.6376953h-7.2734375ZM42.3364258,45.5597534v-2.2324219h12.8398438v2.2324219h-12.8398438ZM42.3364258,94.1974487h12.8398438v2.2353516h-12.8398438v-2.2353516ZM54.3930664,92.1974487v-44.6376953h2.7832031v-4.2324219h6.4038086v4.2324219h2.7832031v44.6376953h-2.7832031v4.2353516h-6.4038086v-4.2353516h-2.7832031ZM68.3632812,92.1974487v-44.6376953h7.2734375v44.6376953h-7.2734375ZM65.5800781,45.5597534v-2.2324219h12.8398438v2.2324219h-12.8398438ZM65.5800781,94.1974487h12.8398438v2.2353516h-12.8398438v-2.2353516ZM77.6367188,92.1974487v-44.6376953h2.7832031v-4.2324219h6.4033203v4.2324219h2.7841797v44.6376953h-2.7841797v4.2353516h-6.4033203v-4.2353516h-2.7832031ZM91.6074219,92.1974487v-44.6376953h7.2724609v44.6376953h-7.2724609ZM88.8232422,45.5597534v-2.2324219h12.8398438v2.2324219h-12.8398438ZM88.8232422,94.1974487h12.8398438v2.2353516h-12.8398438v-2.2353516ZM72,3.0099487l65.6269531,28.9106445H6.3730469L72,3.0099487ZM14.3520508,33.9205933h115.2963867v7.4067383H14.3520508v-7.4067383ZM19.0927734,43.3273315h12.8398438v2.2324219h-12.8398438v-2.2324219ZM21.8759766,47.5597534h7.2734375v44.6376953h-7.2734375v-44.6376953ZM19.0927734,94.1974487h12.8398438v2.2353516h-12.8398438v-2.2353516ZM137.8105469,109.0831909H6.1884766v-5.0029297h131.6220703v5.0029297ZM129.6484375,102.0802612H14.3520508v-3.6474609h115.2963867v3.6474609ZM124.9072266,96.4328003h-12.8398438v-2.2353516h12.8398438v2.2353516ZM122.1240234,92.1974487h-7.2734375v-44.6376953h7.2734375v44.6376953Z"/>
  <path class="st0" d="M71.3271484,9.3693237c-4.9111328,0-8.90625,3.9951172-8.90625,8.9057617,0,4.9111328,3.9951172,8.90625,8.90625,8.90625,4.9101562,0,8.9052734-3.9951172,8.9052734-8.90625,0-4.9106445-3.9951172-8.9057617-8.9052734-8.9057617ZM71.3271484,25.1813354c-3.8081055,0-6.90625-3.0981445-6.90625-6.90625,0-3.8076172,3.0981445-6.9057617,6.90625-6.9057617,3.8076172,0,6.9052734,3.0981445,6.9052734,6.9057617,0,3.8081055-3.0976562,6.90625-6.9052734,6.90625Z"/>
</svg>