<?xml version="1.0" encoding="UTF-8"?>
<svg id="Calque_1" xmlns="http://www.w3.org/2000/svg" width="38.548231mm" height="35.8131662mm" version="1.1" viewBox="0 0 109.2705776 101.517638">
  <!-- Generator: Adobe Illustrator 29.3.1, SVG Export Plug-In . SVG Version: 2.1.0 Build 151)  -->
  <defs>
    <style>
      .st0 {
        fill: #fff;
      }
    </style>
  </defs>
  <path class="st0" d="M102.2368513,76.9494318l-7.6923828-7.4902344c-4.2055054-4.0963135-10.6813965-4.8269653-15.6873779-1.878418l-.1466064-.1427612V2.0544122H2.9321638v94.090332h75.7783203v-5.8140259l5.5957031,5.4487915c2.4316406,2.3671875,5.7011719,3.6835938,9.0849609,3.6835938.2998047,0,.6005859-.0107422.9013672-.03125,3.6914062-.2548828,7.1171875-2.0849609,9.3984375-5.0214844,4.0478516-5.2050781,3.421875-12.7119141-1.4541016-17.4609375ZM79.3934675,77.599151l1.1851807,1.1539917c.6611328.6435547,1.5185547.9648438,2.375.9648438.8857422-.0009766,1.7714844-.3427734,2.4365234-1.0244141.6357422-.6503906.9794922-1.5087891.96875-2.4179688-.0117188-.9082031-.3769531-1.7578125-1.0283203-2.3916016l-1.1842651-1.1531372c2.0036621-.4332275,4.1349487.1261597,5.6481323,1.5994263l7.9228516,7.7148438c1.2890625,1.2548828,1.9658203,3.0087891,1.8564453,4.8105469-.1103516,1.8242188-.9814453,3.4462891-2.4521484,4.5683594-2.4091797,1.8359375-5.9482422,1.5458984-8.2304688-.6767578l-7.7578125-7.5537109c-1.4988403-1.4596558-2.1185913-3.5836182-1.7398682-5.5944214ZM83.9360701,75.3175958c.2675781.2607422.4179688.6103516.4228516.9833984.0039062.3740234-.1367188.7265625-.3994141.9951172-.5400391.5537109-1.4335938.5634766-1.984375.0253906l-17.6025391-17.1396484c-.2675781-.2607422-.4179688-.6103516-.4228516-.9833984-.0048828-.3740234.1367188-.7265625.3984375-.9951172.2744141-.28125.6396484-.4228516,1.0058594-.4228516.3535156,0,.7070312.1328125.9804688.3984375l17.6015625,17.1386719ZM54.9067732,64.3615411l-7.690918-7.4892578c-4.1455078-4.0361328-4.6923828-10.3989258-1.2724609-14.800293,1.9609375-2.5239258,4.7875977-4.0351562,7.9584961-4.2543945,3.1328125-.2133789,6.2148438.9101562,8.4541016,3.090332l7.9238281,7.715332c3.423645,3.3344727,4.2554321,8.5183716,2.180481,12.7289429l-2.1679077-2.1109009c1.0636597-2.9884033.3216553-6.3775635-1.9744873-8.6136475l-7.7578125-7.5541992c-2.9863281-2.9082031-7.6474609-3.265625-10.8383789-.8325195-1.9125977,1.4584961-3.0917969,3.6591797-3.2358398,6.0380859-.1435547,2.3828125.7519531,4.7016602,2.4580078,6.3637695l7.9238281,7.7138672c1.5644531,1.5234375,3.6357422,2.3242188,5.7333984,2.3232422.9954834,0,1.994812-.1897583,2.9507446-.5583496l2.1541748,2.0975342c-4.1638184,2.1790771-9.3713379,1.4805298-12.7992554-1.8575439ZM62.9780622,61.6154474l.9318848.9073486c-2.0047607.4326172-4.1365356-.1270752-5.6467285-1.5987549l-7.9238281-7.7148438c-1.2890625-1.2548828-1.9658203-3.0078125-1.8569336-4.8095703.1103516-1.8242188.980957-3.4462891,2.4521484-4.5678711,2.4101562-1.8374023,5.9487305-1.5473633,8.230957.6743164l7.7578125,7.5541992c1.5028687,1.4643555,2.1207275,3.5847168,1.7407227,5.59552l-.934082-.9094849c-1.34375-1.3076172-3.5029297-1.2822266-4.8134766.0605469-.6347656.6503906-.9785156,1.5087891-.9667969,2.4169922s.3769531,1.7578125,1.0283203,2.3916016ZM76.7104841,94.1447443H4.9321638V4.0544122h71.7783203v61.4361572l-2.7584229-2.6858521c2.8227539-5.0721436,1.9254761-11.5213013-2.27771-15.6140747l-7.9238281-7.715332c-2.6474609-2.5776367-6.2851562-3.9111328-9.9868164-3.652832-2.3492432.1624756-4.5873413.9674683-6.4946289,2.2842407v-.1148071h-28.4916992v2h26.3248901c-.2546387.2751465-.5060425.5540771-.7379761.8525391-.9274292,1.1937256-1.5974121,2.5112915-2.0388794,3.8857422h-23.5480347v2h23.0808105c-.2362061,1.5706177-.1803589,3.175354.1606445,4.7387695h-23.2414551v2h23.8414917c.6717529,1.7268677,1.708374,3.3475952,3.1089478,4.7382812h-26.9504395v2h28.9955444l4.8658447,4.7382812H18.7773787v2h36.1166992c2.2695923,1.6629639,4.9824219,2.5273438,7.7158203,2.5273438,2.274353,0,4.5551758-.5946045,6.5935059-1.7957764l4.9013062,4.7723389c-2.821106,5.0703125-1.9219971,11.524292,2.2776489,15.6142578l.328125.319519v5.7615356ZM102.1118513,93.1838068c-1.9609375,2.5234375-4.7871094,4.0332031-7.9580078,4.2529297-3.1269531.2167969-6.2128906-.9091797-8.453125-3.0908203l-7.9238281-7.7158203c-3.4208984-3.331543-4.255188-8.5186768-2.180481-12.7281494l2.1676636,2.1106567c-1.0617676,2.9876709-.3154297,6.3843994,1.9747314,8.614563l7.7578125,7.5537109c1.6591797,1.6152344,3.8349609,2.4443359,5.9882812,2.4443359,1.7226562,0,3.4306641-.5302734,4.8496094-1.6113281,1.9121094-1.4580078,3.0917969-3.6582031,3.2353516-6.0371094.1445312-2.3837891-.7509766-4.703125-2.4580078-6.3652344l-7.9228516-7.7148438c-2.3098755-2.2476196-5.7068481-2.8937378-8.6726685-1.7529297l-2.1650391-2.1080933c4.1644287-2.1783447,9.3682861-1.4816284,12.798645,1.8571167l7.6923828,7.4902344c4.1445312,4.0361328,4.6914062,10.3994141,1.2695312,14.8007812Z"/>
  <rect class="st0" x="18.7773787" y="17.7770685" width="44.5366211" height="2"/>
  <rect class="st0" x="18.7773787" y="24.5153497" width="44.5366211" height="2"/>
  <rect class="st0" x="18.7773787" y="31.253631" width="44.5366211" height="2"/>
  <rect class="st0" x="18.7773787" y="71.6838068" width="44.5366211" height="2"/>
  <rect class="st0" x="18.7773787" y="78.422088" width="24.0678711" height="2"/>
</svg>