<?xml version="1.0" encoding="UTF-8"?>
<svg id="Calque_1" xmlns="http://www.w3.org/2000/svg" width="37.3944439mm" height="34.2194439mm" version="1.1" viewBox="0 0 106 97">
  <!-- Generator: Adobe Illustrator 29.3.1, SVG Export Plug-In . SVG Version: 2.1.0 Build 151)  -->
  <path d="M102.3369141,75.0275269l-7.8271484-7.6767578c-4.1602783-4.0791626-10.5582886-4.8071289-15.5078735-1.8779297l-.328064-.3217163V18.9083862L59.6640625-.208313H19.3422852v8.9384766h-9.777832v8.9389648H-.2128906v76.4150391h59.3320312v-8.9384766h9.7773438v-8.9384766h3.7943726c-.100708,3.5305176,1.2154541,7.0688477,3.8530884,9.6552734l7.828125,7.6767578c2.4169922,2.3701172,5.5986328,3.6689453,8.9775391,3.6689453.0556641,0,.1113281,0,.1669922-.0009766,3.4404297-.0429688,6.6542969-1.4277344,9.0498047-3.8984375,4.9492188-5.1035156,4.8466797-13.3046875-.2294922-18.28125ZM79.538147,75.4707642l1.1522827,1.1300049c.6347656.6230469,1.4707031.9638672,2.3564453.9638672h.0449219c.9023438-.0117188,1.7451172-.3759766,2.3740234-1.0244141,1.2958984-1.3359375,1.2695312-3.4833984-.0595703-4.7871094l-1.1672363-1.1446533c1.9709473-.4259033,4.0661011.1317749,5.5539551,1.5899658l7.828125,7.6757812c2.4169922,2.3710938,2.4658203,6.2773438.109375,8.7080078-1.1376953,1.1738281-2.6650391,1.8310547-4.2998047,1.8515625-1.625.0400391-3.1767578-.5976562-4.3427734-1.7421875l-7.828125-7.6757812c-1.4752808-1.4473877-2.0878906-3.5505981-1.7216187-5.5450439ZM84.0058594,73.1808472c.5458984.5351562.5566406,1.4179688.0244141,1.9667969-.2558594.2646484-.5986328.4121094-.9648438.4169922-.3632812.0146484-.7128906-.1347656-.9746094-.3916016l-17.3886719-17.0517578c-.5458984-.5351562-.5576172-1.4179688-.0253906-1.9667969.2568359-.2646484.5996094-.4130859.9658203-.4169922.3808594-.0029297.7109375.1347656.9746094.3916016l10.0566406,9.8618164v.0541992h.0552979l7.2767334,7.1357422ZM72.6763306,59.2698364l-2.1254272-2.0842285c1.0502319-2.9743042.3173828-6.3464966-1.9512939-8.571167l-7.828125-7.6757812c-1.5507812-1.5200195-3.5976562-2.3222656-5.7705078-2.3144531-2.1699219.0273438-4.1972656.9008789-5.7080078,2.4589844-3.1210938,3.2182617-3.0561523,8.3896484.144043,11.5273438l7.8276367,7.6767578c1.5488281,1.5175781,3.5986328,2.3144531,5.6748047,2.3144531.9822998,0,1.9685059-.1879883,2.9116821-.5527344l2.1193848,2.0783081c-4.1063232,2.1598511-9.2402954,1.4671631-12.6209106-1.8488159l-7.8276367-7.6757812c-4.2924805-4.2089844-4.3793945-11.1450195-.1938477-15.4614258,2.0219727-2.0854492,4.7348633-3.2543945,7.6396484-3.2910156,2.9111328-.015625,5.6455078,1.0629883,7.71875,3.0961914l7.828125,7.6762695c3.3787231,3.3126221,4.2018433,8.4609985,2.1616821,12.6470947ZM63.3017578,59.5490112l.916687.8989258c-1.9716797.4252319-4.0678711-.1326294-5.5534058-1.5883789l-7.8276367-7.6767578c-2.4174805-2.3701172-2.4663086-6.2763672-.1088867-8.7070312,1.1376953-1.1733398,2.6640625-1.8310547,4.2978516-1.8520508,1.625-.012207,3.1777344.5986328,4.3447266,1.7426758l7.828125,7.6757812c1.4794922,1.4509888,2.0897217,3.5505981,1.7216797,5.5450439l-.9033203-.8858643c-.6464844-.6328125-1.5078125-.9755859-2.4003906-.9638672-.9023438.0107422-1.7460938.375-2.3759766,1.0244141-1.2958984,1.3369141-1.2685547,3.484375.0605469,4.7871094ZM60.2480469,3.2156372l15.1133423,15.1981201h-15.1133423V3.2156372ZM57.1191406,92.0841675H1.7871094V19.6691284h7.7773438v65.4765625h47.5546875v6.9384766ZM66.8964844,83.1456909H11.5644531V10.7301636h7.777832v65.4770508h47.5541992v6.9384766ZM21.3422852,74.2072144V1.791687h36.9057617v18.6220703h18.4257812v42.776123l-2.5073242-2.4587402c2.7883911-5.0463867,1.9012451-11.4638672-2.2514648-15.5361328l-7.828125-7.6762695c-2.4560547-2.4091797-5.7070312-3.7001953-9.1445312-3.668457-3.440918.043457-6.6547852,1.4282227-9.0498047,3.8984375-4.9492188,5.1040039-4.8466797,13.3051758.2290039,18.2817383l7.8276367,7.6757812c2.4677734,2.4199219,5.7246094,3.6640625,9,3.6640625,2.244751,0,4.4968872-.5897827,6.5114136-1.7817993l4.8323364,4.7387695c-.6797485,1.2301636-1.1400757,2.5397339-1.3876343,3.8799438H21.3422852ZM101.1308594,91.9161987c-2.0224609,2.0859375-4.7353516,3.2548828-7.6396484,3.2910156-2.8837891.0751953-5.6445312-1.0625-7.71875-3.0957031l-7.828125-7.6767578c-3.3751221-3.3102417-4.2006226-8.4621582-2.1621094-12.6470947l2.1248779,2.0837402c-1.048584,2.97229-.3106079,6.3535767,1.9522705,8.5721436l7.828125,7.6757812c1.5244141,1.4951172,3.5322266,2.3154297,5.6640625,2.3154297.0351562,0,.0693359,0,.1044922-.0009766,2.1708984-.0273438,4.1992188-.9003906,5.7099609-2.4589844,3.1201172-3.2177734,3.0556641-8.3896484-.1445312-11.5283203l-7.828125-7.6757812c-2.2828369-2.239563-5.6403809-2.8857422-8.5755005-1.7519531l-2.1291504-2.0878906c4.1071777-2.1606445,9.2392578-1.4682007,12.6206665,1.8476562l7.8271484,7.6767578c4.2929688,4.2089844,4.3798828,11.1445312.1943359,15.4609375Z"/>
</svg>