<?xml version="1.0" encoding="UTF-8"?>
<svg id="Calque_1" xmlns="http://www.w3.org/2000/svg" width="48.3305548mm" height="49.3888881mm" version="1.1" viewBox="0 0 137 140">
  <!-- Generator: Adobe Illustrator 29.3.1, SVG Export Plug-In . SVG Version: 2.1.0 Build 151)  -->
  <defs>
    <style>
      .st0 {
        fill: #1e1e1e;
      }
    </style>
  </defs>
  <path class="st0" d="M41.8486328,98.4396362C19.0380859,98.4396362.4804688,117.0831909.4804688,140.0001831h2c0-21.8134766,17.6606445-39.5605469,39.3681641-39.5605469s39.3681641,17.7470703,39.3681641,39.5605469h2c0-22.9169922-18.5576172-41.5605469-41.3681641-41.5605469Z"/>
  <path class="st0" d="M41.8486328,93.9620972c11.9482422,0,21.6689453-9.7646484,21.6689453-21.7666016s-9.7207031-21.7666016-21.6689453-21.7666016-21.668457,9.7646484-21.668457,21.7666016,9.7202148,21.7666016,21.668457,21.7666016ZM41.8486328,52.428894c10.8457031,0,19.6689453,8.8671875,19.6689453,19.7666016s-8.8232422,19.7666016-19.6689453,19.7666016c-10.8452148,0-19.668457-8.8671875-19.668457-19.7666016s8.8232422-19.7666016,19.668457-19.7666016Z"/>
  <path class="st0" d="M102.4169922.0001831C83.6123047.0001831,68.3134766,15.3717651,68.3134766,34.2658081c0,18.8935547,15.2988281,34.2646484,34.1035156,34.2646484,18.8037109-.0004883,34.1015625-15.371582,34.1015625-34.2646484C136.5185547,15.3717651,121.2207031.0001831,102.4169922.0001831ZM102.4169922,66.5304565c-17.7021484,0-32.1035156-14.4736328-32.1035156-32.2646484,0-17.7915039,14.4013672-32.265625,32.1035156-32.265625,17.7011719,0,32.1015625,14.4741211,32.1015625,32.265625,0,17.7905273-14.4003906,32.2641602-32.1015625,32.2646484Z"/>
  <path class="st0" d="M121.2792969,26.7150269c-.9589844-.4267578-2.0253906-.453125-3.0058594-.0751953l-11.9355469,4.6274414V10.1344604c-.0009766-2.1669922-1.7607422-3.9301758-3.921875-3.9301758-2.1621094,0-3.921875,1.7631836-3.921875,3.9306641v26.8671875c0,1.2924805.6347656,2.503418,1.7001953,3.2402344.6582031.4516602,1.4257812.6904297,2.2216797.6904297.359375,0,.7177734-.0498047,1.1113281-.1616211l17.5751953-6.7978516c2.0126953-.7802734,3.0214844-3.0581055,2.2470703-5.0776367-.3759766-.9804688-1.1113281-1.7548828-2.0703125-2.1806641ZM120.3798828,32.1085815l-17.2275391,6.6791992-.2128906.0722656c-.5488281.1552734-1.1455078.0546875-1.6113281-.265625-.5224609-.3608398-.8339844-.9560547-.8339844-1.5922852V10.1349487c0-1.0644531.8623047-1.9306641,1.921875-1.9306641,1.0585938,0,1.9208984.8662109,1.921875,1.9306641v24.0527344l14.6582031-5.6821289c.4775391-.1850586,1-.171875,1.4707031.0371094.4697266.2084961.8300781.5883789,1.0146484,1.0698242.3808594.9931641-.1132812,2.112793-1.1015625,2.4960938Z"/>
</svg>