<?xml version="1.0" encoding="UTF-8"?>
<svg id="Calque_1" xmlns="http://www.w3.org/2000/svg" width="52.9166659mm" height="42.3333327mm" version="1.1" viewBox="0 0 150 120">
  <!-- Generator: Adobe Illustrator 29.3.1, SVG Export Plug-In . SVG Version: 2.1.0 Build 151)  -->
  <defs>
    <style>
      .st0 {
        fill: #fff;
      }
    </style>
  </defs>
  <path class="st0" d="M128.2509766,107.170105l-6.1611328-6.4208984c-.5251465-.546875-1.1655273-.9711914-1.885437-1.262085,3.4041138-1.9625244,5.7028198-5.6010742,5.7028198-9.7681885v-51.9921875c0-6.3041992-5.1357422-11.4326172-11.4482422-11.4326172h-3.2285156v-6.2213135l7.5986328-13.0238037-10.234375-5.9545898-6.1867676,10.6033325c-.9261475-.2319336-1.8791504-.3562622-2.8425293-.3562622h-39.4970703c-6.4316406,0-11.6640625,5.2255859-11.6640625,11.6489258v3.3037109h-12.8637695c-6.3120117,0-11.4472656,5.128418-11.4472656,11.4326172v51.9921875c0,4.1671143,2.2984009,7.8056641,5.7022095,9.7681885-.7198486.2908936-1.3598633.71521-1.8848267,1.262085l-6.1606445,6.4208984c-1.5136719,1.5761719-2.0566406,3.8134766-1.4169922,5.8378906.90625,2.8632812,2.7333984,5.9238281,5.1445312,5.9238281h99.0449219c2.4121094,0,4.2392578-3.0605469,5.1435547-5.9238281.640625-2.0234375.0986328-4.2607422-1.4150391-5.8378906ZM60.0683594,55.2423706h30.0302734l9.7763672,8.1230469v-8.1269531c6.2890625-.1650391,11.3554688-5.3251953,11.3554688-11.6450195v-10.9519043c4.4360962.1814575,7.9912109,3.8310547,7.9912109,8.3034668v45.5424805c0,4.5283203-3.6904297,8.2119141-8.2255859,8.2119141H39.1123047c-4.5957031,0-8.3344727-3.7324219-8.3344727-8.3203125v-45.434082c0-4.5878906,3.7387695-8.3208008,8.3344727-8.3208008h9.2919922v10.9692383c0,6.4233398,5.2324219,11.6489258,11.6640625,11.6489258ZM109.3154297,3.8278198l6.7773438,3.9428711-14.0012207,23.9967041-6.7782593-3.9431763,14.0021362-23.9963989ZM100.2787476,33.0264282l-4.7172241,2.1519775-.4521484-5.1591797,5.1693726,3.0072021ZM50.4042969,22.9904175c0-5.3203125,4.3354492-9.6489258,9.6640625-9.6489258h39.4970703c.6005859,0,1.1919556.074646,1.7764893.1832886l-8.4200439,14.4309692.8935547,10.2177734,9.3408203-4.2617188,6.0742188-10.4110107v20.0926514c0,5.3203125-4.3359375,9.6489258-9.6650391,9.6489258h-1.6904297v5.8613281l-7.0537109-5.8613281h-30.7529297c-5.3286133,0-9.6640625-4.3286133-9.6640625-9.6489258v-20.6030273ZM26.0932617,89.7189331v-51.9921875c0-5.2011719,4.237793-9.4326172,9.4472656-9.4326172h12.8637695v2.3300781h-9.2919922c-5.6982422,0-10.3344727,4.6298828-10.3344727,10.3208008v45.434082c0,5.6904297,4.6362305,10.3203125,10.3344727,10.3203125h71.8837891c5.6386719,0,10.2255859-4.5810547,10.2255859-10.2119141v-45.5424805c0-5.5753784-4.4523926-10.1207275-9.9912109-10.3034668v-2.3474121h3.2285156c5.2099609,0,9.4482422,4.2314453,9.4482422,9.4326172v51.9921875c0,5.1347656-4.2382812,9.3115234-9.4482422,9.3115234H35.5405273c-5.2094727,0-9.4472656-4.1767578-9.4472656-9.3115234ZM29.3540039,102.1339722c.875-.9121094,2.046875-1.1035156,2.8759766-1.1035156h2.3457031c.0680542,0,.1276245-.0257568.1918335-.0386963.2565918.0170898.512085.0386963.7730103.0386963h82.2290039c.8291016,0,2.0009766.1914062,2.8769531,1.1035156l6.1611328,6.4208984c.3789673.3947144.666626.8500366.8561401,1.3349609H22.3365479c.1895752-.4848633.4772949-.9401245.8563232-1.3349609l6.1611328-6.4208984ZM124.5224609,116.9318237H25.4775391c-1.0292969,0-2.4208984-1.9462891-3.2373047-4.5273438-.0535889-.1694946-.0936279-.3414917-.1218872-.5146484h105.7636108c-.0283203.1735229-.0684204.3458252-.1221924.515625-.8154297,2.5800781-2.2070312,4.5263672-3.2373047,4.5263672Z"/>
  <rect class="st0" x="60.8027344" y="23.52948" width="26.4892578" height="2"/>
  <rect class="st0" x="60.8027344" y="30.8590698" width="26.4892578" height="2"/>
  <rect class="st0" x="60.8027344" y="38.1891479" width="15.9570312" height="2"/>
</svg>