<?xml version="1.0" encoding="UTF-8"?>
<svg id="Calque_1" xmlns="http://www.w3.org/2000/svg" width="49.3888881mm" height="49.3888881mm" version="1.1" viewBox="0 0 140 140">
  <!-- Generator: Adobe Illustrator 29.3.1, SVG Export Plug-In . SVG Version: 2.1.0 Build 151)  -->
  <defs>
    <style>
      .st0 {
        fill: #1e1e1e;
      }
    </style>
  </defs>
  <polygon class="st0" points="140 133.9290161 129.4869995 127.8580322 129.4869995 133.1680298 6.8314819 133.1680298 6.8314819 10.5131226 12.1414795 10.5131226 6.0710449 0 0 10.5131226 5.3095703 10.5131226 5.3095703 134.6900024 129.4869995 134.6900024 129.4869995 140 140 133.9290161"/>
  <path class="st0" d="M24.6499023,122.0148315l62.4223633-53.4189453.0009766-.0004883,8.8691406,10.362793,13.6367188-38.6347656-40.2807617,7.5024414,8.8696289,10.3632812L15.7436523,111.6085815l8.90625,10.40625ZM73.0703125,49.1578979l33.4697266-6.2338867-11.3300781,32.1025391-7.9179688-9.2495117-62.4233398,53.4174805-6.3046875-7.3671875,62.4243164-53.4194336-7.9179688-9.25Z"/>
</svg>