<?xml version="1.0" encoding="UTF-8"?>
<svg id="Calque_1" xmlns="http://www.w3.org/2000/svg" width="41.2749994mm" height="22.9305552mm" version="1.1" viewBox="0 0 117 65">
  <!-- Generator: Adobe Illustrator 29.3.1, SVG Export Plug-In . SVG Version: 2.1.0 Build 151)  -->
  <defs>
    <style>
      .st0 {
        fill: #5480ba;
      }
    </style>
  </defs>
  <path class="st0" d="M28.237793,1C13.2188721,1,1,13.1958008,1,28.1865234c0,8.5523071,3.9868164,16.1842041,10.1928101,21.1713867l3.8095093-5.4750977c-4.480835-3.7695923-7.3380737-9.4035034-7.3380737-15.6962891,0-11.3222046,9.2300415-20.5348511,20.5735474-20.5348511,11.3436279,0,20.5720215,9.2126465,20.5720215,20.5348511,0,5.2824707-2.0333862,10.0827026-5.3292847,13.7243652v-15.1796875h-8.5841064c-2.5325317,0-4.9042358,1.2382812-6.3488159,3.3145142L4.5474854,64.5408325h11.6691284l6.7451172-9.6947021.038269.0091553c1.6965942.331543,3.4453735.5161133,5.237793.5161133.6298218,0,1.2467041-.0521851,1.8660889-.0944214v-6.6516724c-.6156006.055603-1.2362671.0944214-1.8660889.0944214-.315918,0-.6234131-.0331421-.935791-.0473022l-.0427856-.0030518,6.4003906-9.1992798v25.0707397h9.8209229v-13.8671265c7.2232666-4.8936157,11.9934692-13.1367188,11.9934692-22.4871826,0-14.9907227-12.218811-27.1865234-27.2362061-27.1865234Z"/>
  <polygon class="st0" points="71.067627 36.1895142 63.5214844 64.6118774 70.5502319 64.6151123 78.0963135 36.1928101 71.067627 36.1895142"/>
  <path class="st0" d="M95.2634888,45.5402222c-1.0835571-1.3170166-2.9302979-1.9779053-5.5432129-1.9796143-3.6184692-.0015869-6.7797852.6187744-9.4838867,1.8594971l.7810059,4.7142944c2.5592041-1.0214844,4.5848999-1.53302,6.0687256-1.5313721,1.656311.0015869,2.2566528.8557739,1.8043823,2.5592651l-.078125.2922974-3.4281006.1088867c-2.899353.1331177-5.2487793.7372437-7.0449829,1.8123169-1.7946167,1.0767212-2.9855957,2.7185059-3.5697021,4.9238281-.5628662,2.1192017-.4489746,3.7609863.3433228,4.9318848.7923584,1.1693115,2.1477051,1.7539062,4.06427,1.7554932,1.5587158,0,2.8880005-.2160034,3.987793-.65448,1.0999146-.4400024,2.279541-1.2553101,3.5436401-2.4472046h.1431885l.621521,2.7412109,4.8712769.0015869,3.6038818-13.5712891c.6264038-2.364502.3986206-4.2012329-.6849976-5.5166016ZM87.3790283,56.9907227c-.2311401.8753052-.723999,1.5881958-1.4741211,2.137085-.751709.5440063-1.5521851.8184814-2.4047241.8184814-1.3276978-.001709-1.8287964-.6333618-1.4903564-1.9016724.4360962-1.6417847,1.8238525-2.5073853,4.1586914-2.5917969l1.6367798-.0698242-.4262695,1.6077271Z"/>
  <path class="st0" d="M112.210022,53.4406738c-.5510254-.5731812-1.4580078-1.156189-2.7269897-1.7537842-1.7130127-.7697754-2.7360229-1.2780762-3.0750122-1.5281982-.3320312-.251709-.4550171-.552063-.3610229-.90448.151001-.5715942.8040161-.8607178,1.9559937-.8591309.6570435,0,1.4710083.151123,2.4320068.4515381.9650269.2971802,1.8569946.6593018,2.6799927,1.0880127l3.1240234-4.6022339c-1.1160278-.5717163-2.2280273-1.0084839-3.3289795-1.3088989-1.1000366-.2971802-2.3220215-.4498901-3.6630249-.4498901-2.6740112-.0015869-4.882019.5327148-6.6329956,1.6044922-1.7440186,1.0717773-2.8748169,2.5690918-3.3856812,4.4935303-.4035034,1.5231934-.362854,2.7784424.1156006,3.770752.4782715.9938354,1.5500488,1.8821411,3.2120972,2.663208,1.8299561.8283081,2.9179688,1.3853149,3.2699585,1.6710815.3500366.2858276.4750366.6122437.3770142.9760132-.1870117.7064209-1.0410156,1.0620117-2.5609741,1.0604248-1.0180054,0-2.1390381-.1575317-3.3540039-.4758301-1.2175293-.3166504-2.3043213-.7210083-3.2675171-1.2081909l-1.5195923,5.7178955c1.0509644.4368286,2.1085815.7388916,3.1774902.906189,1.0722046.1623535,2.3626099.2468262,3.8726196.2468262,2.7819824.0015869,5.0650024-.5618896,6.8509521-1.6937866,1.7870483-1.130188,2.973999-2.8078003,3.5630493-5.0245361.2929688-1.1074829.3779907-2.0460815.2539673-2.8223877-.1239624-.7713623-.4619751-1.4436646-1.0089722-2.0186157Z"/>
  <path class="st0" d="M57.065979,57.3170776l2.1379395-8.0531616,4.9981689.0032959,1.4204102-5.3526001-4.9981689-.0032349,1.1015015-4.147583-5.885437-.0031738c-1.3704834,3.5219116-3.3565063,6.7259521-5.8317871,9.4978027l2.114502.0006714-2.2648315,8.5305176c-.6474609,2.4359741-.6051636,4.2434082.1237183,5.4174805.7338257,1.1741333,2.2794189,1.7636108,4.6386108,1.7653198,1.1519165,0,2.1785889-.0894165,3.0831909-.2631226.9030151-.175415,1.8823853-.4710083,2.9384155-.8833618l1.3828735-5.204834c-1.4447632.4710083-2.6389771.7064209-3.5858765.704834-1.269104,0-1.7294922-.6674194-1.37323-2.0088501Z"/>
</svg>